<svg width="32" height="32" viewBox="0 0 32 32" fill="none" xmlns="http://www.w3.org/2000/svg">
<g clip-path="url(#clip0_45_275)">
<path fill-rule="evenodd" clip-rule="evenodd" d="M23.1115 15.8212C23.2749 15.6052 23.2854 15.2416 23.1341 15.0084C22.9826 14.7744 22.728 14.7602 22.5646 14.9763C22.4008 15.1916 22.3908 15.556 22.5422 15.7892C22.6931 16.0224 22.9483 16.0366 23.1115 15.8212ZM2.45379 17.1804C2.45379 17.1804 -2.60784 23.2393 8.51431 24.5487C8.51431 24.5487 -5.52651 26.8361 2.45379 17.1804ZM5.05417 18.1781C4.74397 16.6313 5.15259 15.2159 5.39531 14.5648C5.37836 14.6347 5.36236 14.7046 5.34687 14.7737C5.36684 14.7153 5.38632 14.6611 5.40479 14.6112C5.46974 14.4372 5.52266 14.3181 5.54717 14.2653C5.54915 14.2397 5.55114 14.2133 5.55312 14.1876C6.19151 6.20221 10.9413 3.05176e-05 16.7056 3.05176e-05C19.655 3.05176e-05 22.3383 1.62273 24.3413 4.27799C36.4533 1.81006 30.5966 13.6143 30.5046 13.7983C33.8461 4.82418 27.4067 7.05434 26.2243 7.52687C27.2824 9.93633 27.9039 12.775 27.9306 15.8191C27.9313 15.879 27.9317 15.9396 27.9317 16.0002C27.9317 16.0616 27.9313 16.1229 27.9306 16.1834C27.8877 22.6289 25.179 28.163 21.3028 30.6501L21.3024 30.6507C20.9866 30.8531 20.6626 31.035 20.3318 31.1964C20.3259 31.1991 20.3204 31.2021 20.3145 31.2042C20.1185 31.2777 19.9248 31.3468 19.7324 31.4103C18.9627 31.6667 18.2234 31.845 17.5146 31.9586C17.248 31.9864 16.9781 32 16.706 32C15.8084 32 14.9352 31.8496 14.0986 31.5649C13.262 31.2813 12.4618 30.8634 11.709 30.3283C11.709 30.3283 11.709 30.3277 11.7085 30.3277C11.5466 30.2129 11.3868 30.0918 11.229 29.9655C9.70249 29.0449 5.66354 27.7421 5.3534 27.6424C6.68351 28.0439 8.04868 28.0545 9.22098 27.9168C9.219 27.9141 9.2165 27.9113 9.21452 27.9083C9.3274 27.8983 9.4408 27.8863 9.55467 27.8727C10.7994 27.6929 11.785 27.363 12.2085 27.2053C15.2124 26.063 17.6135 23.881 20.2455 19.7772L20.4097 19.5605L20.4706 19.6548L20.3778 21.8667L21.6935 20.1304L21.9528 18.3327C22.2715 18.0632 22.6057 17.708 22.9288 17.2816C23.5712 16.4338 23.9638 15.6166 24.2125 14.7702C24.3684 14.2397 24.6105 13.486 24.4618 13.2563C24.3145 13.0289 23.7578 13.3098 23.3809 13.4853C22.7684 13.7691 22.1764 14.2689 21.5301 15.1217C21.2215 15.5289 20.9572 15.956 20.7485 16.371L19.4133 16.6092L18.0975 18.3448L19.6495 18.3868L19.7104 18.4811L19.5462 18.6977C19.5462 18.6977 8.95078 24.0121 5.86338 20.1419C5.85935 20.1367 5.85587 20.1325 5.8519 20.1268H5.85138C5.5377 19.6582 5.32243 19.1784 5.18206 18.7041C5.18107 18.702 5.18053 18.7007 5.18053 18.6992C5.13557 18.5482 5.09865 18.3977 5.06818 18.2485C5.06316 18.2249 5.05817 18.2016 5.0542 18.1781H5.05417ZM23.4662 6.94565C23.1121 6.94565 23.1125 6.16121 23.4662 6.16121C23.8203 6.16121 23.8194 6.94565 23.4662 6.94565ZM22.0008 4.66407C21.5182 4.66407 21.5187 3.59447 22.0008 3.59447C22.4838 3.59447 22.4831 4.66407 22.0008 4.66407ZM21.8008 10.5111C21.4467 10.5111 21.4478 9.72693 21.8008 9.72693C22.1551 9.72693 22.1544 10.5111 21.8008 10.5111ZM23.4328 4.52121C23.5936 4.52121 23.5936 4.8781 23.4328 4.8781C23.2719 4.8781 23.2719 4.52121 23.4328 4.52121ZM20.9018 2.7863C20.7409 2.7863 20.7415 2.42992 20.9018 2.42992C21.0632 2.42992 21.0626 2.7863 20.9018 2.7863ZM19.5033 7.68261C19.3424 7.68261 19.3428 7.32572 19.5033 7.32572C19.6645 7.32572 19.6641 7.68261 19.5033 7.68261ZM19.0372 4.11689C18.8764 4.11689 18.8764 3.76051 19.0372 3.76051C19.198 3.76051 19.198 4.11689 19.0372 4.11689ZM18.5712 1.41961C18.3134 1.41961 18.3138 0.8492 18.5712 0.8492C18.8283 0.8492 18.8279 1.41961 18.5712 1.41961ZM16.673 2.47688C16.3189 2.47688 16.3193 1.69245 16.673 1.69245C17.0273 1.69245 17.0262 2.47688 16.673 2.47688ZM14.1085 6.87448C13.9477 6.87448 13.9483 6.5181 14.1085 6.5181C14.27 6.5181 14.2694 6.87448 14.1085 6.87448ZM12.244 2.16846C12.0832 2.16846 12.0832 1.81161 12.244 1.81161C12.4048 1.81161 12.4048 2.16846 12.244 2.16846Z" fill="url(#paint0_linear_45_275)"/>
</g>
<defs>
<linearGradient id="paint0_linear_45_275" x1="6.55974" y1="20.617" x2="33.6953" y2="16.3483" gradientUnits="userSpaceOnUse">
<stop stop-color="#ED1C24"/>
<stop offset="0.4" stop-color="#841844"/>
<stop offset="1" stop-color="#1B1464"/>
</linearGradient>
<clipPath id="clip0_45_275">
<rect width="32" height="32" fill="white"/>
</clipPath>
</defs>
</svg>
